<svg width="16" height="16" viewBox="0 0 16 16" fill="none" xmlns="http://www.w3.org/2000/svg">
<path d="M8.53999 7.10005C8.17999 7.01005 7.81999 6.83005 7.54999 6.56005C7.27999 6.47005 7.18999 6.20005 7.18999 6.02005C7.18999 5.84005 7.27999 5.57005 7.45999 5.48005C7.72999 5.30005 7.99999 5.12005 8.26999 5.21005C8.80999 5.21005 9.25999 5.48005 9.52999 5.84005L10.34 4.76005C10.07 4.49005 9.79999 4.31005 9.52999 4.13005C9.25999 3.95005 8.89999 3.86005 8.53999 3.86005V2.60005H7.45999V3.86005C7.00999 3.95005 6.55999 4.22005 6.19999 4.58005C5.83999 5.03005 5.56999 5.57005 5.65999 6.11005C5.65999 6.65005 5.83999 7.19005 6.19999 7.55005C6.64999 8.00005 7.27999 8.27005 7.81999 8.54005C8.08999 8.63005 8.44999 8.81005 8.71999 8.99005C8.89999 9.17005 8.98999 9.44005 8.98999 9.71005C8.98999 9.98005 8.89999 10.2501 8.71999 10.5201C8.44999 10.7901 8.08999 10.8801 7.81999 10.8801C7.45999 10.8801 7.00999 10.7901 6.73999 10.5201C6.46999 10.3401 6.19999 10.0701 6.01999 9.80005L5.11999 10.7901C5.38999 11.1501 5.65999 11.4201 6.01999 11.6901C6.46999 11.9601 7.00999 12.2301 7.54999 12.2301V13.4001H8.53999V12.0501C9.07999 11.9601 9.52999 11.6901 9.88999 11.3301C10.34 10.8801 10.61 10.1601 10.61 9.53005C10.61 8.99005 10.43 8.36005 9.97999 8.00005C9.52999 7.55005 9.07999 7.28005 8.53999 7.10005ZM7.99999 0.800049C4.03999 0.800049 0.799988 4.04005 0.799988 8.00005C0.799988 11.9601 4.03999 15.2001 7.99999 15.2001C11.96 15.2001 15.2 11.9601 15.2 8.00005C15.2 4.04005 11.96 0.800049 7.99999 0.800049ZM7.99999 14.2101C4.57999 14.2101 1.78999 11.4201 1.78999 8.00005C1.78999 4.58005 4.57999 1.79005 7.99999 1.79005C11.42 1.79005 14.21 4.58005 14.21 8.00005C14.21 11.4201 11.42 14.2101 7.99999 14.2101Z" fill="black"/>
</svg>
