<svg width="15" height="15" viewBox="0 0 15 15" fill="none" xmlns="http://www.w3.org/2000/svg">
<path d="M7.66667 14.3333C11.3486 14.3333 14.3333 11.3486 14.3333 7.66667C14.3333 3.98477 11.3486 1 7.66667 1C3.98477 1 1 3.98477 1 7.66667C1 11.3486 3.98477 14.3333 7.66667 14.3333Z" stroke="black" stroke-width="1.33333" stroke-linecap="round" stroke-linejoin="round"/>
<path d="M7.66666 11.6666C9.8758 11.6666 11.6667 9.87577 11.6667 7.66663C11.6667 5.45749 9.8758 3.66663 7.66666 3.66663C5.45752 3.66663 3.66666 5.45749 3.66666 7.66663C3.66666 9.87577 5.45752 11.6666 7.66666 11.6666Z" stroke="black" stroke-width="1.33333" stroke-linecap="round" stroke-linejoin="round"/>
<path d="M7.66668 9.00004C8.40306 9.00004 9.00001 8.40309 9.00001 7.66671C9.00001 6.93033 8.40306 6.33337 7.66668 6.33337C6.9303 6.33337 6.33334 6.93033 6.33334 7.66671C6.33334 8.40309 6.9303 9.00004 7.66668 9.00004Z" stroke="black" stroke-width="1.33333" stroke-linecap="round" stroke-linejoin="round"/>
</svg>
