<svg width="16" height="16" viewBox="0 0 16 16" fill="none" xmlns="http://www.w3.org/2000/svg">
<path d="M12.3244 15.7511C12.175 15.7507 12.026 15.7343 11.88 15.7022C9.10073 15.1273 6.54027 13.7793 4.49333 11.8134C2.49008 9.84309 1.10071 7.33451 0.493334 4.59113C0.421717 4.24923 0.439294 3.89464 0.544376 3.5615C0.649457 3.22835 0.838506 2.92785 1.09333 2.68891L2.87111 0.977801C2.96191 0.891928 3.0698 0.826169 3.18774 0.784815C3.30568 0.743461 3.43101 0.727441 3.55556 0.737801C3.6847 0.751273 3.80932 0.792873 3.92065 0.859676C4.03199 0.926478 4.12734 1.01686 4.2 1.12447L6.42222 4.40891C6.50556 4.53635 6.54578 4.68718 6.53698 4.83919C6.52818 4.99121 6.47082 5.13638 6.37333 5.25336L5.25778 6.58669C5.70207 7.57 6.33126 8.45872 7.11111 9.20447C7.88591 9.97727 8.8017 10.5943 9.80889 11.0222L11.1911 9.92447C11.3072 9.83272 11.4485 9.77848 11.5961 9.76895C11.7438 9.75942 11.8909 9.79506 12.0178 9.87113L15.3733 12.04C15.4885 12.1088 15.5866 12.2027 15.6603 12.3147C15.734 12.4268 15.7814 12.5541 15.7989 12.687C15.8164 12.82 15.8037 12.9552 15.7615 13.0825C15.7194 13.2099 15.649 13.326 15.5556 13.4222L13.8222 15.1378C13.6253 15.3337 13.3916 15.4888 13.1346 15.594C12.8775 15.6993 12.6022 15.7527 12.3244 15.7511ZM3.48444 1.6178L1.70667 3.32891C1.56331 3.46249 1.45719 3.63108 1.39875 3.8181C1.3403 4.00513 1.33155 4.20414 1.37333 4.39558C1.9381 6.96986 3.23632 9.32549 5.11111 11.1778C7.03742 13.0274 9.44694 14.2953 12.0622 14.8356C12.2602 14.877 12.4653 14.8686 12.6592 14.8112C12.8532 14.7538 13.0298 14.6492 13.1733 14.5067L14.9067 12.7911L11.6667 10.6978L10.1822 11.88C10.1254 11.925 10.0584 11.9554 9.98716 11.9686C9.91589 11.9817 9.84248 11.9773 9.77333 11.9556C8.54076 11.5014 7.42376 10.7806 6.50222 9.84447C5.54905 8.95434 4.80917 7.86047 4.33778 6.64447C4.31784 6.57085 4.31717 6.49334 4.33585 6.4194C4.35454 6.34545 4.39193 6.27756 4.44444 6.22225L5.64444 4.78669L3.48444 1.6178Z" fill="black"/>
</svg>
