<svg width="14" height="14" viewBox="0 0 14 14" fill="none" xmlns="http://www.w3.org/2000/svg">
<path d="M9.90668 8.33337C9.96001 7.89337 10 7.45337 10 7.00004C10 6.54671 9.96001 6.10671 9.90668 5.66671H12.16C12.2667 6.09337 12.3333 6.54004 12.3333 7.00004C12.3333 7.46004 12.2667 7.90671 12.16 8.33337H9.90668ZM8.72668 12.04C9.12668 11.3 9.43334 10.5 9.64668 9.66671H11.6133C10.9675 10.7789 9.94275 11.6214 8.72668 12.04ZM8.56001 8.33337H5.44001C5.37334 7.89337 5.33334 7.45337 5.33334 7.00004C5.33334 6.54671 5.37334 6.10004 5.44001 5.66671H8.56001C8.62001 6.10004 8.66668 6.54671 8.66668 7.00004C8.66668 7.45337 8.62001 7.89337 8.56001 8.33337ZM7.00001 12.3067C6.44668 11.5067 6.00001 10.62 5.72668 9.66671H8.27334C8.00001 10.62 7.55334 11.5067 7.00001 12.3067ZM4.33334 4.33337H2.38668C3.02591 3.21818 4.04987 2.37436 5.26668 1.96004C4.86668 2.70004 4.56668 3.50004 4.33334 4.33337ZM2.38668 9.66671H4.33334C4.56668 10.5 4.86668 11.3 5.26668 12.04C4.05243 11.6212 3.02991 10.7785 2.38668 9.66671ZM1.84001 8.33337C1.73334 7.90671 1.66668 7.46004 1.66668 7.00004C1.66668 6.54004 1.73334 6.09337 1.84001 5.66671H4.09334C4.04001 6.10671 4.00001 6.54671 4.00001 7.00004C4.00001 7.45337 4.04001 7.89337 4.09334 8.33337H1.84001ZM7.00001 1.68671C7.55334 2.48671 8.00001 3.38004 8.27334 4.33337H5.72668C6.00001 3.38004 6.44668 2.48671 7.00001 1.68671ZM11.6133 4.33337H9.64668C9.43802 3.50768 9.12906 2.71064 8.72668 1.96004C9.95334 2.38004 10.9733 3.22671 11.6133 4.33337ZM7.00001 0.333374C3.31334 0.333374 0.333344 3.33337 0.333344 7.00004C0.333344 8.76815 1.03572 10.4638 2.28596 11.7141C2.90502 12.3331 3.63995 12.8242 4.44879 13.1592C5.25762 13.4943 6.12453 13.6667 7.00001 13.6667C8.76812 13.6667 10.4638 12.9643 11.7141 11.7141C12.9643 10.4638 13.6667 8.76815 13.6667 7.00004C13.6667 6.12456 13.4942 5.25766 13.1592 4.44882C12.8242 3.63998 12.3331 2.90505 11.7141 2.286C11.095 1.66694 10.3601 1.17588 9.55123 0.840844C8.7424 0.505812 7.87549 0.333374 7.00001 0.333374Z" fill="black"/>
</svg>
